#!OML:ASF F:\VICON\USERDATA\INSTALL\rory3\rory3.ASF
:FULLY-SPECIFIED
:DEGREES
2239
root 0.361594 16.1144 -0.264884 1.60703 4.03055 -0.94639
lowerback 11.8996 -0.32235 -2.02719
upperback -1.83803 -0.797851 -0.755559
thorax -8.64215 -0.306571 0.492072
lowerneck 0.534042 -13.6358 -18.421
upperneck 7.38043 -19.883 19.0774
head 5.94785 -9.80515 7.40465
rclavicle 6.38596e-015 1.98785e-014
rhumerus -69.3697 39.6319 -89.7466
rradius 122.241
rwrist -42.4099
rhand 40.5897 9.361
rfingers 7.12502
rthumb 62.8822 -0.989375
lclavicle 6.38596e-015 1.98785e-014
lhumerus -65.809 -34.1234 82.8753
lradius 120.288
lwrist 74.3611
lhand 25.039 42.4696
lfingers 7.12502
lthumb 49.197 64.1039
rfemur -2.84393 10.5285 17.7089
rtibia 16.9511
rfoot -11.8616 -18.4077
rtoes -7.24327
lfemur -3.6363 -9.06626 -16.9565
ltibia 14.2626
lfoot -9.19842 7.17291
ltoes -8.30564
2240
root 0.36141 16.1206 -0.260719 1.64709 4.07087 -0.836655
lowerback 11.7015 -0.337881 -2.10463
upperback -1.84449 -0.828637 -0.804564
thorax -8.53402 -0.320154 0.487649
lowerneck 0.594515 -13.5862 -18.3729
upperneck 7.51896 -19.84 19.0455
head 5.96283 -9.78556 7.39839
rclavicle -9.69075e-015 -1.15295e-014
rhumerus -67.8896 38.9308 -88.2968
rradius 121.412
rwrist -42.241
rhand 39.3486 8.90748
rfingers 7.12502
rthumb 61.853 -2.76824
lclavicle -9.69075e-015 -1.15295e-014
lhumerus -64.462 -33.0696 81.4815
lradius 119.826
lwrist 73.9539
lhand 24.5167 41.834
lfingers 7.12502
lthumb 48.7171 63.7052
rfemur -2.57664 10.571 17.5951
rtibia 16.4495
rfoot -11.7347 -18.4893
rtoes -7.01087
lfemur -3.42188 -9.37284 -17.0994
ltibia 13.8548
lfoot -9.1166 7.47201
ltoes -8.12311
2241
root 0.36116 16.1282 -0.253938 1.66412 4.03385 -0.834555
lowerback 11.46 -0.347065 -2.10238
upperback -1.83115 -0.835784 -0.836174
thorax -8.3806 -0.326335 0.451899
lowerneck 0.770975 -13.5029 -18.2231
upperneck 7.44263 -19.7433 19.0551
head 5.87587 -9.74632 7.41024
rclavicle 3.42904e-015 -3.57812e-015
rhumerus -66.3192 38.1005 -86.8325
rradius 120.591
rwrist -41.8348
rhand 38.3195 8.51014
rfingers 7.12502
rthumb 60.9881 -4.18923
lclavicle 3.42904e-015 -3.57812e-015
lhumerus -63.0538 -31.9031 80.1212
lradius 119.417
lwrist 73.4802
lhand 22.0895 37.9004
lfingers 7.12502
lthumb 46.4764 60.7939
rfemur -2.30527 10.7019 17.6036
rtibia 15.9349
rfoot -11.5709 -18.5715
rtoes -6.54575
lfemur -3.16602 -9.51612 -17.112
ltibia 13.4237
lfoot -9.06363 7.65925
ltoes -7.7397
2242
root 0.361838 16.1373 -0.243545 1.72339 3.87856 -1.04107
lowerback 11.0627 -0.336243 -1.92772
upperback -1.78559 -0.781043 -0.795377
thorax -8.105 -0.310063 0.383329
lowerneck 0.975106 -13.4203 -17.9848
upperneck 7.19204 -19.6255 19.0614
head 5.71773 -9.69904 7.41489
rclavicle 7.30534e-015 1.27222e-014
rhumerus -64.6374 37.1908 -85.3548
rradius 119.79
rwrist -41.3095
rhand 37.1375 8.06609
rfingers 7.12502
rthumb 59.9829 -5.73217
lclavicle 7.30534e-015 1.27222e-014
lhumerus -61.4203 -30.7626 78.9254
lradius 119.059
lwrist 73.3663
lhand 21.2924 38.596
lfingers 7.12502
lthumb 45.7371 61.7992
rfemur -2.09524 10.89 17.8391
rtibia 15.427
rfoot -11.3048 -18.6688
rtoes -6.82663
lfemur -2.91591 -9.4498 -16.8791
ltibia 12.9597
lfoot -8.97624 7.78842
ltoes -7.31748
2243
root 0.362319 16.1435 -0.234247 1.75417 3.70893 -1.20876
lowerback 10.7335 -0.315739 -1.79628
upperback -1.73049 -0.722975 -0.758111
thorax -7.8582 -0.289501 0.335808
lowerneck 1.21408 -13.3476 -17.8396
upperneck 6.85578 -19.5222 19.1441
head 5.5492 -9.66272 7.45828
rclavicle -5.61567e-015 -1.19271e-014
rhumerus -62.9557 36.1818 -83.8864
rradius 119.052
rwrist -40.5517
rhand 35.8477 7.70189
rfingers 7.12502
rthumb 58.8732 -7.20927
lclavicle -5.61567e-015 -1.19271e-014
lhumerus -59.663 -29.6384 77.7877
lradius 118.737
lwrist 73.5848
lhand 19.7526 38.2269
lfingers 7.12502
lthumb 44.3045 61.9953
rfemur -1.83675 11.1282 18.0358
rtibia 14.8969
rfoot -11.0505 -18.7752
rtoes -7.02408
lfemur -2.65504 -9.42334 -16.6964
ltibia 12.5342
lfoot -8.88485 7.95985
ltoes -7.03737
2244
root 0.362416 16.147 -0.228938 1.71848 3.60814 -1.20722
lowerback 10.5663 -0.299931 -1.82201
upperback -1.69267 -0.701658 -0.775492
thorax -7.72186 -0.279786 0.326938
lowerneck 1.55495 -13.2489 -17.7259
upperneck 6.43242 -19.3919 19.2943
head 5.34304 -9.62016 7.54046
rclavicle -7.1314e-015 1.74931e-014
rhumerus -61.3407 35.0819 -82.5191
rradius 118.366
rwrist -39.4697
rhand 34.9362 7.28948
rfingers 7.12502
rthumb 58.0816 -8.35847
lclavicle -7.1314e-015 1.74931e-014
lhumerus -58.2682 -28.0877 76.6519
lradius 118.787
lwrist 73.502
lhand 17.9213 38.092
lfingers 7.12502
lthumb 42.5939 62.4799
rfemur -1.53354 11.3856 18.055
rtibia 14.4337
rfoot -11.0044 -18.8712
rtoes -6.30373
lfemur -2.30364 -9.44327 -16.7076
ltibia 12.039
lfoot -8.77362 8.07766
ltoes -6.69172
2245
root 0.364435 16.1504 -0.223717 1.67984 3.53029 -1.14556
lowerback 10.4133 -0.293552 -1.88206
upperback -1.6753 -0.698359 -0.797155
thorax -7.61507 -0.277103 0.336165
lowerneck 1.98126 -13.0981 -17.638
upperneck 5.9284 -19.1901 19.4667
head 5.09007 -9.54961 7.65115
rclavicle 1.56543e-014 1.27222e-014
rhumerus -59.8192 33.9103 -81.2977
rradius 117.739
rwrist -38.0428
rhand 34.2919 6.82828
rfingers 7.12502
rthumb 57.5186 -9.31734
lclavicle 1.56543e-014 1.27222e-014
lhumerus -57.1707 -26.1267 75.6017
lradius 118.885
lwrist 72.7467
lhand 16.9215 38.3277
lfingers 7.12502
lthumb 41.6572 63.0315
rfemur -1.26871 11.4832 17.9907
rtibia 14.0674
rfoot -10.9731 -18.8591
rtoes -5.97447
lfemur -1.88167 -9.46497 -16.8037
ltibia 11.4225
lfoot -8.55824 8.21924
ltoes -6.67711
2246
root 0.367981 16.1534 -0.216828 1.64646 3.45998 -1.02134
lowerback 10.2336 -0.305363 -1.98224
upperback -1.64117 -0.724608 -0.838596
thorax -7.47445 -0.288013 0.351804
lowerneck 2.3847 -12.9423 -17.4379
upperneck 5.32995 -18.9543 19.5768
head 4.78934 -9.46186 7.72936
rclavicle 1.71452e-015 -7.95139e-015
rhumerus -58.2937 32.71 -80.1535
rradius 117.188
rwrist -36.4215
rhand 33.7611 6.59481
rfingers 7.12502
rthumb 57.0528 -9.94712
lclavicle 1.71452e-015 -7.95139e-015
lhumerus -56.0453 -24.5189 74.7233
lradius 118.721
lwrist 71.631
lhand 16.5108 37.9269
lfingers 7.12502
lthumb 41.2718 62.7562
rfemur -1.05821 11.4917 17.8404
rtibia 13.8144
rfoot -11.0879 -18.7712
rtoes -5.1734
lfemur -1.35537 -9.57735 -16.9797
ltibia 10.6349
lfoot -8.37996 8.42679
ltoes -6.40681
2247
root 0.368951 16.1565 -0.211882 1.54968 3.38634 -0.989795
lowerback 10.135 -0.337128 -2.04191
upperback -1.58232 -0.77015 -0.832265
thorax -7.35325 -0.30901 0.398635
lowerneck 2.83877 -12.7858 -17.2972
upperneck 4.60522 -18.7139 19.7716
head 4.45821 -9.37731 7.8487
rclavicle -7.33018e-015 -7.15625e-015
rhumerus -56.8653 31.517 -79.1178
rradius 116.818
rwrist -34.7188
rhand 33.124 6.54782
rfingers 7.12502
rthumb 56.4915 -10.4541
lclavicle -7.33018e-015 -7.15625e-015
lhumerus -54.904 -23.1722 74.0356
lradius 118.611
lwrist 70.5041
lhand 15.4804 36.9094
lfingers 7.12502
lthumb 40.3036 62.0432
rfemur -0.887815 11.5782 17.8299
rtibia 13.6684
rfoot -10.8591 -18.8832
rtoes -6.33219
lfemur -0.693 -9.51039 -17.0547
ltibia 9.67536
lfoot -8.05571 8.52255
ltoes -6.46797
2248
root 0.368833 16.1606 -0.208225 1.4772 3.32887 -0.851053
lowerback 10.0327 -0.340215 -2.19572
upperback -1.52796 -0.792092 -0.868114
thorax -7.23495 -0.315608 0.44998
lowerneck 3.38535 -12.6714 -17.2185
upperneck 3.79047 -18.5376 20.0409
head 4.11267 -9.33184 8.00037
rclavicle -1.44616e-014 2.38542e-015
rhumerus -55.6718 30.2202 -78.2361
rradius 116.575
rwrist -32.8667
rhand 32.2114 6.80498
rfingers 7.12502
rthumb 55.6833 -10.8276
lclavicle -1.44616e-014 2.38542e-015
lhumerus -53.7611 -21.6811 73.4426
lradius 118.646
lwrist 69.1596
lhand 14.6411 36.0639
lfingers 7.12502
lthumb 39.5137 61.4349
rfemur -0.757884 11.6412 17.6954
rtibia 13.5175
rfoot -10.3768 -19.0077
rtoes -8.94607
lfemur -0.056806 -9.46136 -17.2414
ltibia 8.70666
lfoot -7.63242 8.60399
ltoes -6.01327
2249
root 0.369002 16.1644 -0.206347 1.47901 3.30473 -0.569383
lowerback 9.8779 -0.32758 -2.47488
upperback -1.50193 -0.80912 -0.93461
thorax -7.11595 -0.315443 0.538331
lowerneck 3.97938 -12.554 -17.2572
upperneck 2.93752 -18.3652 20.3844
head 3.76929 -9.29376 8.19723
rclavicle -2.23633e-015 0
rhumerus -54.5105 28.8307 -77.4367
rradius 116.322
rwrist -30.9582
rhand 31.4538 7.15934
rfingers 7.12502
rthumb 55.009 -10.9728
lclavicle -2.23633e-015 0
lhumerus -52.7116 -19.9851 72.9842
lradius 118.762
lwrist 67.657
lhand 14.1781 35.6486
lfingers 7.12502
lthumb 39.0774 61.1464
rfemur -0.593486 11.6338 17.3764
rtibia 13.2152
rfoot -10.1037 -18.9971
rtoes -10.0339
lfemur 0.380552 -9.44624 -17.5808
ltibia 7.95911
lfoot -7.34648 8.65518
ltoes -5.65005
2250
root 0.368991 16.1667 -0.202359 1.40649 3.23326 -0.601574
lowerback 9.74014 -0.3146 -2.46302
upperback -1.44738 -0.780564 -0.880017
thorax -6.97907 -0.302754 0.583315
lowerneck 4.47616 -12.4216 -17.3312
upperneck 2.12431 -18.1577 20.6625
head 3.44475 -9.23353 8.37554
rclavicle 8.07563e-015 9.14409e-015
rhumerus -53.4615 27.4447 -76.6577
rradius 116.24
rwrist -29.4051
rhand 30.76 7.20328
rfingers 7.12502
rthumb 54.3889 -11.3684
lclavicle 8.07563e-015 9.14409e-015
lhumerus -51.7243 -18.274 72.7742
lradius 118.777
lwrist 66.0301
lhand 13.939 35.3775
lfingers 7.12502
lthumb 38.852 60.9397
rfemur -0.277439 11.7069 17.4321
rtibia 12.8387
rfoot -10.144 -18.9332
rtoes -8.87125
lfemur 0.829692 -9.37524 -17.5707
ltibia 7.31791
lfoot -7.11142 8.73342
ltoes -6.01214
